# xmcd
#
# Track frame offsets:
#	150
#	16301
#	31207
#	48537
#	61134
#	77754
#	93603
#	109292
#	126284
#	138799
#	151198
#	166371
#	178254
#	193230
#	206084
#	222495
#	237437
#	252583
#	266306
#	280222
#	293133
#	307348
#	320471
#	338051
#
# Disc length: 4666 seconds
#
# Revision: 1
# Processed by: cddbd v1.5.2PL0 Copyright (c) Steve Scherf et al.
# Submitted via: audiograbber 1.83.01
#
DISCID=70123818
DTITLE=Los Tucanes De tijuana - 20 Anniversario
DYEAR=1900
DGENRE=
TTITLE0=Sin Ti Soy Un Loco
TTITLE1=Amante De Lo Bueno
TTITLE2=Siempre Contigo
TTITLE3=La Heladas
TTITLE4=El Cocodrilo
TTITLE5=El Virus Del Amor
TTITLE6=Luna llena
TTITLE7=Chica Sexy
TTITLE8=El Amor Sonado
TTITLE9=Mis Tres Animales
TTITLE10=La Chona
TTITLE11=El Centenario
TTITLE12=Secuestro De Amor
TTITLE13=Es Verdad
TTITLE14=Me Gusta Vivir de Noche
TTITLE15=Des De Que Te Amo
TTITLE16=El Papa De Los Pollitos
TTITLE17=Amor Platonico
TTITLE18=Por Que Me Enamore De Ti
TTITLE19=Los Mas Buscados
TTITLE20=La Pinata
TTITLE21=El Tucanazo
TTITLE22=Jugo A La Vida
TTITLE23=La Tambora Va A Sonar 
EXTD=
EXTT0=
EXTT1=
EXTT2=
EXTT3=
EXTT4=
EXTT5=
EXTT6=
EXTT7=
EXTT8=
EXTT9=
EXTT10=
EXTT11=
EXTT12=
EXTT13=
EXTT14=
EXTT15=
EXTT16=
EXTT17=
EXTT18=
EXTT19=
EXTT20=
EXTT21=
EXTT22=
EXTT23=
PLAYORDER=
